#N canvas 964 241 814 742 10;
#X obj 67 44 oprocessing;
#N canvas 569 195 986 695 rand_fm_drone 0;
#X obj 142 143 nbx 3 14 -36 36 0 1 empty empty empty 0 -8 0 10 -262144
-1 -1 -36 256;
#X obj 182 143 nbx 3 14 -36 36 0 1 empty empty empty 0 -8 0 10 -262144
-1 -1 -36 256;
#X obj 222 143 nbx 3 14 -36 36 0 1 empty empty empty 0 -8 0 10 -262144
-1 -1 -28 256;
#X obj 120 382 +;
#X obj 222 394 +;
#X obj 298 399 +;
#X obj 305 363 t b f;
#X obj 233 346 t b f;
#X obj 145 337 t b f;
#N canvas 0 50 450 300 pan1 0;
#X obj 120 15 inlet;
#X obj 297 51 inlet~;
#X obj 256 225 outlet~;
#X obj 336 218 outlet~;
#X obj 251 149 *~;
#X obj 323 154 *~;
#X obj 276 122 + 1;
#X obj 335 113 * -1;
#X obj 208 75 * -1;
#X obj 160 42 clip 0 1;
#X connect 0 0 9 0;
#X connect 1 0 4 0;
#X connect 1 0 5 1;
#X connect 4 0 2 0;
#X connect 5 0 3 0;
#X connect 6 0 4 1;
#X connect 7 0 5 0;
#X connect 8 0 6 0;
#X connect 8 0 7 0;
#X connect 9 0 8 0;
#X restore 16 578 pd pan1;
#N canvas 0 50 450 300 pan1 0;
#X obj 120 15 inlet;
#X obj 297 51 inlet~;
#X obj 256 225 outlet~;
#X obj 336 218 outlet~;
#X obj 251 149 *~;
#X obj 323 154 *~;
#X obj 276 122 + 1;
#X obj 335 113 * -1;
#X obj 208 75 * -1;
#X obj 160 42 clip 0 1;
#X connect 0 0 9 0;
#X connect 1 0 4 0;
#X connect 1 0 5 1;
#X connect 4 0 2 0;
#X connect 5 0 3 0;
#X connect 6 0 4 1;
#X connect 7 0 5 0;
#X connect 8 0 6 0;
#X connect 8 0 7 0;
#X connect 9 0 8 0;
#X restore 76 579 pd pan1;
#N canvas 0 50 450 300 pan1 0;
#X obj 120 15 inlet;
#X obj 297 51 inlet~;
#X obj 256 225 outlet~;
#X obj 336 218 outlet~;
#X obj 251 149 *~;
#X obj 323 154 *~;
#X obj 276 122 + 1;
#X obj 335 113 * -1;
#X obj 208 75 * -1;
#X obj 160 42 clip 0 1;
#X connect 0 0 9 0;
#X connect 1 0 4 0;
#X connect 1 0 5 1;
#X connect 4 0 2 0;
#X connect 5 0 3 0;
#X connect 6 0 4 1;
#X connect 7 0 5 0;
#X connect 8 0 6 0;
#X connect 8 0 7 0;
#X connect 9 0 8 0;
#X restore 141 579 pd pan1;
#N canvas 0 50 450 300 pan1 0;
#X obj 120 15 inlet;
#X obj 297 51 inlet~;
#X obj 256 225 outlet~;
#X obj 336 218 outlet~;
#X obj 251 149 *~;
#X obj 323 154 *~;
#X obj 276 122 + 1;
#X obj 335 113 * -1;
#X obj 208 75 * -1;
#X obj 160 42 clip 0 1;
#X connect 0 0 9 0;
#X connect 1 0 4 0;
#X connect 1 0 5 1;
#X connect 4 0 2 0;
#X connect 5 0 3 0;
#X connect 6 0 4 1;
#X connect 7 0 5 0;
#X connect 8 0 6 0;
#X connect 8 0 7 0;
#X connect 9 0 8 0;
#X restore 206 579 pd pan1;
#X obj 275 124 nbx 6 14 1 1e+37 0 1 empty empty clocklen -50 8 0 10
-262144 -1 -1 8418 256;
#X obj 94 717 outlet~;
#X obj 236 728 outlet~;
#X obj 262 143 nbx 3 14 -36 36 0 1 empty empty empty 0 -8 0 10 -262144
-1 -1 -26 256;
#X obj 420 409 +;
#X obj 418 372 t b f;
#N canvas 0 50 450 300 pan1 0;
#X obj 120 15 inlet;
#X obj 297 51 inlet~;
#X obj 256 225 outlet~;
#X obj 336 218 outlet~;
#X obj 251 149 *~;
#X obj 323 154 *~;
#X obj 276 122 + 1;
#X obj 335 113 * -1;
#X obj 208 75 * -1;
#X obj 160 42 clip 0 1;
#X connect 0 0 9 0;
#X connect 1 0 4 0;
#X connect 1 0 5 1;
#X connect 4 0 2 0;
#X connect 5 0 3 0;
#X connect 6 0 4 1;
#X connect 7 0 5 0;
#X connect 8 0 6 0;
#X connect 8 0 7 0;
#X connect 9 0 8 0;
#X restore 274 575 pd pan1;
#X obj 5 22 inlet;
#X obj 10 190 +;
#X obj 102 143 nbx 3 14 0 127 0 1 empty empty empty 0 -8 0 10 -262144
-1 -1 44.029 256;
#X obj 4 45 t b f;
#X text 47 24 tp;
#X obj 63 207 mtof;
#X obj 127 124 nbx 3 14 0 127 0 1 empty empty modp -25 8 0 10 -262144
-1 -1 45.9195 256;
#X obj 61 183 +;
#X obj 292 5 loadbang;
#X msg -87 112 bang;
#X obj 105 161 hsl 32 8 0 1 0 1 empty empty empty -2 -8 0 10 -262144
-1 -1 1800 1;
#X obj 145 161 hsl 32 8 0 1 0 1 empty empty empty -2 -8 0 10 -262144
-1 -1 1300 1;
#X obj 185 161 hsl 32 8 0 1 0 1 empty empty empty -2 -8 0 10 -262144
-1 -1 2000 1;
#X obj 225 161 hsl 32 8 0 1 0 1 empty empty empty -2 -8 0 10 -262144
-1 -1 2000 1;
#X obj 265 161 hsl 32 8 0 1 0 1 empty empty empty -2 -8 0 10 -262144
-1 -1 1400 1;
#X obj 305 161 hsl 32 8 0 1 0 1 empty empty empty -2 -8 0 10 -262144
-1 -1 1600 1;
#X obj 345 161 hsl 32 8 0 1 0 1 empty empty empty -2 -8 0 10 -262144
-1 -1 2100 1;
#X obj 302 143 nbx 3 14 -36 36 0 1 empty empty empty 0 -8 0 10 -262144
-1 -1 -11 256;
#X obj 533 417 +;
#X obj 535 383 t b f;
#X obj 342 143 nbx 3 14 -36 36 0 1 empty empty empty 0 -8 0 10 -262144
-1 -1 14 256;
#X obj 663 420 +;
#X obj 667 389 t b f;
#N canvas 0 50 450 300 pan1 0;
#X obj 120 15 inlet;
#X obj 297 51 inlet~;
#X obj 256 225 outlet~;
#X obj 336 218 outlet~;
#X obj 251 149 *~;
#X obj 323 154 *~;
#X obj 276 122 + 1;
#X obj 335 113 * -1;
#X obj 208 75 * -1;
#X obj 160 42 clip 0 1;
#X connect 0 0 9 0;
#X connect 1 0 4 0;
#X connect 1 0 5 1;
#X connect 4 0 2 0;
#X connect 5 0 3 0;
#X connect 6 0 4 1;
#X connect 7 0 5 0;
#X connect 8 0 6 0;
#X connect 8 0 7 0;
#X connect 9 0 8 0;
#X restore 339 578 pd pan1;
#N canvas 1 79 450 300 pan1 0;
#X obj 120 15 inlet;
#X obj 297 51 inlet~;
#X obj 256 225 outlet~;
#X obj 336 218 outlet~;
#X obj 251 149 *~;
#X obj 323 154 *~;
#X obj 276 122 + 1;
#X obj 335 113 * -1;
#X obj 208 75 * -1;
#X obj 160 42 clip 0 1;
#X connect 0 0 9 0;
#X connect 1 0 4 0;
#X connect 1 0 5 1;
#X connect 4 0 2 0;
#X connect 5 0 3 0;
#X connect 6 0 4 1;
#X connect 7 0 5 0;
#X connect 8 0 6 0;
#X connect 8 0 7 0;
#X connect 9 0 8 0;
#X restore 418 574 pd pan1;
#X obj -58 155 t b f;
#X obj 383 115 vsl 8 48 0 1 0 1 empty empty empty 0 -9 0 10 -262144
-1 -1 2181 1;
#X obj 681 252 t f f;
#X obj 685 284 *;
#X obj 93 688 *~;
#X obj 238 701 *~;
#X obj 449 5 inlet;
#X text 489 10 bang to change;
#X obj 343 123 tgl 15 1 empty empty ext 17 7 0 10 -262144 -1 -1 0 1
;
#X obj -57 228 t b;
#X obj -56 182 metro;
#X obj 409 90 == 0;
#X obj 258 42 != 0;
#X obj -62 206 spigot;
#X obj 283 77 spigot;
#X obj 184 124 nbx 3 14 0.1 10 0 1 empty empty fmd -19 8 0 10 -262144
-1 -1 0.386667 256;
#X obj 500 42 t b f;
#X obj 305 106 nbx 7 14 1 1e+37 0 1 empty empty seed -27 8 0 10 -262144
-1 -1 48124 256;
#X obj 196 25 inlet;
#X text 202 8 reset;
#X obj 196 48 t b;
#X obj -43 423 abs_osc_binrfmsdrone1;
#X obj 63 457 abs_osc_binrfmsdrone1;
#X obj 173 434 abs_osc_binrfmsdrone1;
#X obj 288 460 abs_osc_binrfmsdrone1;
#X obj 401 484 abs_osc_binrfmsdrone1;
#X obj 525 501 abs_osc_binrfmsdrone1;
#X obj 641 532 abs_osc_binrfmsdrone1;
#X obj 530 81 + 6;
#X obj 557 81 + 12;
#X obj 589 81 + 18;
#X obj 624 81 + 24;
#X obj 659 80 + 30;
#X obj 695 80 + 36;
#X obj 151 43 inlet;
#X obj 107 43 inlet;
#X obj 61 42 inlet;
#X obj 372 -1 inlet;
#X obj 370 21 / 250;
#X connect 0 0 8 0;
#X connect 1 0 7 0;
#X connect 2 0 6 0;
#X connect 3 0 67 0;
#X connect 4 0 68 0;
#X connect 5 0 69 0;
#X connect 6 0 5 0;
#X connect 6 1 5 1;
#X connect 7 0 4 0;
#X connect 7 1 4 1;
#X connect 8 0 3 0;
#X connect 8 1 3 1;
#X connect 9 0 49 0;
#X connect 9 1 50 0;
#X connect 10 0 49 0;
#X connect 10 1 50 0;
#X connect 11 0 49 0;
#X connect 11 1 50 0;
#X connect 12 0 49 0;
#X connect 12 1 50 0;
#X connect 13 0 45 0;
#X connect 13 0 66 2;
#X connect 13 0 67 2;
#X connect 13 0 68 2;
#X connect 13 0 69 2;
#X connect 13 0 70 2;
#X connect 13 0 71 2;
#X connect 13 0 72 2;
#X connect 16 0 18 0;
#X connect 17 0 70 0;
#X connect 18 0 17 0;
#X connect 18 1 17 1;
#X connect 19 0 49 0;
#X connect 19 1 50 0;
#X connect 20 0 23 0;
#X connect 21 0 3 0;
#X connect 21 0 4 0;
#X connect 21 0 5 0;
#X connect 21 0 17 0;
#X connect 21 0 38 0;
#X connect 21 0 41 0;
#X connect 21 0 66 0;
#X connect 22 0 21 0;
#X connect 23 0 21 0;
#X connect 23 0 27 0;
#X connect 23 1 21 1;
#X connect 23 1 27 1;
#X connect 25 0 66 1;
#X connect 25 0 67 1;
#X connect 25 0 68 1;
#X connect 25 0 69 1;
#X connect 25 0 70 1;
#X connect 26 0 27 0;
#X connect 26 0 71 1;
#X connect 26 0 72 1;
#X connect 27 0 25 0;
#X connect 28 0 62 0;
#X connect 29 0 55 0;
#X connect 30 0 9 0;
#X connect 31 0 10 0;
#X connect 32 0 11 0;
#X connect 33 0 12 0;
#X connect 34 0 19 0;
#X connect 35 0 43 0;
#X connect 36 0 44 0;
#X connect 37 0 39 0;
#X connect 38 0 71 0;
#X connect 39 0 38 0;
#X connect 39 1 38 1;
#X connect 40 0 42 0;
#X connect 41 0 72 0;
#X connect 42 0 41 0;
#X connect 42 1 41 1;
#X connect 43 0 49 0;
#X connect 43 1 50 0;
#X connect 44 0 49 0;
#X connect 44 1 50 0;
#X connect 45 0 55 0;
#X connect 45 1 55 1;
#X connect 46 0 47 0;
#X connect 47 0 48 0;
#X connect 47 1 48 1;
#X connect 48 0 49 1;
#X connect 48 0 50 1;
#X connect 49 0 14 0;
#X connect 50 0 15 0;
#X connect 51 0 59 0;
#X connect 53 0 56 0;
#X connect 53 0 57 0;
#X connect 54 0 66 3;
#X connect 54 0 67 3;
#X connect 54 0 68 3;
#X connect 54 0 69 3;
#X connect 54 0 70 3;
#X connect 54 0 71 3;
#X connect 54 0 72 3;
#X connect 55 0 58 0;
#X connect 56 0 58 1;
#X connect 57 0 59 1;
#X connect 58 0 54 0;
#X connect 59 0 54 0;
#X connect 60 0 66 4;
#X connect 60 0 67 4;
#X connect 60 0 68 4;
#X connect 60 0 69 4;
#X connect 60 0 70 4;
#X connect 60 0 71 4;
#X connect 60 0 72 4;
#X connect 61 0 29 0;
#X connect 61 0 13 0;
#X connect 61 1 66 5;
#X connect 61 1 73 0;
#X connect 61 1 74 0;
#X connect 61 1 75 0;
#X connect 61 1 76 0;
#X connect 61 1 77 0;
#X connect 61 1 78 0;
#X connect 62 0 61 0;
#X connect 63 0 65 0;
#X connect 65 0 62 0;
#X connect 66 0 9 1;
#X connect 67 0 10 1;
#X connect 68 0 11 1;
#X connect 69 0 12 1;
#X connect 70 0 19 1;
#X connect 71 0 43 1;
#X connect 72 0 44 1;
#X connect 73 0 67 5;
#X connect 74 0 68 5;
#X connect 75 0 69 5;
#X connect 76 0 70 5;
#X connect 77 0 71 5;
#X connect 78 0 72 5;
#X connect 79 0 60 0;
#X connect 80 0 26 0;
#X connect 81 0 22 0;
#X connect 82 0 83 0;
#X connect 83 0 46 0;
#X coords 0 -1 1 1 294 75 1 100 100;
#X restore 60 316 pd rand_fm_drone;
#X obj 361 297 bng 15 250 50 0 empty empty empty 17 7 0 10 -262144
-1 -1;
#X obj 289 216 bng 15 250 50 0 empty empty empty 17 7 0 10 -262144
-1 -1;
#X obj 196 655 dac~;
#X obj 107 244 ftom;
#X obj 67 244 ftom;
#X text 388 295 clique pour changer d'ambiance;
#X text 307 214 reset;
#X text 73 395 patch inspiré du travail de martin brinkmann;
#X obj 361 264 loadbang;
#X obj 148 244 ftom;
#X obj 202 263 / 300;
#X obj 396 191 > 180;
#X obj 396 214 change;
#X connect 0 0 6 0;
#X connect 0 1 5 0;
#X connect 0 2 11 0;
#X connect 0 3 1 5;
#X connect 0 3 12 0;
#X connect 0 3 13 0;
#X connect 1 0 4 0;
#X connect 1 1 4 1;
#X connect 2 0 1 6;
#X connect 3 0 1 4;
#X connect 5 0 1 1;
#X connect 6 0 1 0;
#X connect 10 0 2 0;
#X connect 11 0 1 2;
#X connect 12 0 1 3;
#X connect 13 0 14 0;
#X connect 14 0 2 0;
