#N canvas 320 180 1017 558 10;
#X obj 11 -230 bng 15 250 50 0 empty empty empty 17 7 0 10 -262144
-1 -1;
#X obj 11 -212 i;
#X obj 36 -212 + 1;
#X obj 11 249 s euc-beat1;
#X obj 115 249 s euc-beat1;
#X obj 201 248 s euc-beat2;
#X obj 305 248 s euc-beat2;
#X obj 392 249 s euc-beat3;
#X obj 495 249 s euc-beat3;
#X obj 581 248 s euc-beat4;
#X obj 685 248 s euc-beat4;
#X obj 11 -251 r masterclock;
#X obj 11 -190 eucgui;
#X obj 201 -190 eucgui;
#X obj 391 -190 eucgui;
#X obj 581 -190 eucgui;
#X connect 0 0 1 0;
#X connect 1 0 2 0;
#X connect 1 0 12 0;
#X connect 1 0 13 0;
#X connect 1 0 14 0;
#X connect 1 0 15 0;
#X connect 2 0 1 1;
#X connect 11 0 0 0;
#X connect 12 0 3 0;
#X connect 12 1 4 0;
#X connect 13 0 5 0;
#X connect 13 1 6 0;
#X connect 14 0 7 0;
#X connect 14 1 8 0;
#X connect 15 0 9 0;
#X connect 15 1 10 0;
