#N canvas 109 102 1425 964 10;
#X obj 101 101 cnv 15 1028 328 empty empty empty 20 12 0 14 -228915
-66577 0;
#N canvas 0 87 1920 993 granulator1 0;
#X obj 114 229 cnv 15 703 70 empty empty empty 20 12 0 14 -257985 -66577
0;
#X obj 37 -48 inlet;
#X obj -37 -40 inlet;
#X obj 115 210 hsl 700 15 0 1 0 1 empty empty POSITION 5 8 0 10 -262144
-258113 -86277 34601 1;
#X obj -42 757 abs_particles12;
#X obj 421 -86 inlet;
#X text 421 -105 filename;
#X obj 197 934 outlet~;
#X obj 267 928 outlet~;
#X obj 340 -8 openpanel;
#X obj 611 138 bng 15 250 50 0 empty empty openfile 20 8 0 10 -262144
-1 -1;
#X obj 360 737 soundfiler;
#X obj 373 615 t b a;
#X obj 364 672 pack \$0 s;
#X obj 370 645 float;
#X obj 474 533 loadbang;
#X obj 116 175 hsl 700 15 0 1 0 1 empty empty RATE 5 8 0 10 -262144
-258113 -86277 29785 1;
#X obj 1 465 t f f;
#X obj -11 492 *;
#X obj -15 518 t b f;
#X symbolatom 113 120 80 0 0 0 - - -, f 80;
#X obj -33 653 clip 1 1000;
#X obj 66 722 *;
#X obj 250 633 / 4;
#X obj 115 321 hsl 700 15 0 1 0 1 empty empty LONGUEUR 2 7 0 10 -262144
-258113 -86277 68262 1;
#X obj 116 339 hsl 700 15 0 1 0 1 empty empty LONGUEUR-JITTER 5 8 0
10 -262144 -258113 -86277 0 1;
#X obj -27 735 *;
#X obj 7 734 *;
#X obj 116 375 hsl 700 15 0 1 0 1 empty empty PITCH-JITTER 2 7 0 10
-262144 -258113 -86277 0 1;
#X obj 116 393 hsl 700 15 0 1 0 1 empty empty PANORAMIC-JITTER 2 7
0 10 -262144 -258113 -86277 48056 1;
#X obj 115 303 hsl 700 15 0 1 0 1 empty empty POSITION-JITTER 5 8 0
10 -262144 -258113 -86277 0 1;
#X obj 106 727 *;
#X obj -91 553 delay 10;
#X obj 47 498 t f f;
#X obj 49 527 *;
#X obj 155 509 t f f;
#X obj 152 538 *;
#X obj 97 519 t f f;
#X obj 94 548 *;
#X obj -17 594 +;
#X obj -85 432 random;
#X obj -55 360 *;
#X obj -49 332 t f f;
#X obj -88 -45 inlet;
#X obj -87 -24 t b;
#X obj -166 536 delay 0;
#X obj 115 192 hsl 700 15 0 1 0 1 empty empty RATE-JITTER 5 8 0 10
-262144 -258113 -86277 0 1;
#X obj -55 381 *;
#X obj -76 404 * 1000;
#X obj -66 471 / 1000;
#X obj -103 506 clip 10 1000;
#X msg 292 532 set \$1;
#X msg 256 572 626511;
#X text 41 -70 pos;
#X obj 34 11 clip 0 1;
#X obj -36 10 clip 0 1;
#X text -36 -60 rate;
#X text 477 -88 basic granulator;
#X obj 286 500 t b b a;
#X msg 610 740 bang;
#X obj 759 875 outlet;
#X obj 720 752 float;
#X obj 753 117 bng 15 250 50 0 empty empty s-presets 20 5 0 10 -262144
-258113 -258113;
#X obj 631 793 t b b;
#X obj 423 582 outlet;
#X obj -106 638 spigot;
#X obj -156 638 spigot;
#X obj -135 -46 inlet;
#X text -133 -66 bang;
#X text -93 -66 rate;
#X obj -212 638 spigot;
#X obj 397 138 tgl 15 0 empty empty CLOCK 20 8 0 10 -262144 -1 -1 0
1;
#X obj 475 138 tgl 15 0 empty empty EUCLY 20 8 0 10 -262144 -1 -1 0
1;
#X obj 552 138 tgl 15 0 empty empty RATE 20 8 0 10 -262144 -1 -1 1
1;
#X obj 701 137 bng 15 250 50 0 empty empty bang 20 7 0 10 -262144 -1
-1;
#X text -209 -121 clock;
#X obj -36 -16 / 128;
#X obj 107 -44 inlet;
#X obj 107 11 clip 0 1;
#X text 111 -66 len;
#X obj 237 -44 inlet;
#X obj 234 11 clip 0 1;
#X obj 235 -15 / 128;
#X text 241 -66 pan;
#N canvas 1 89 619 500 limit 0;
#X obj 88 47 inlet~;
#X obj 89 374 outlet~;
#X obj 94 332 hip~ 20;
#X obj 121 119 env~;
#X obj 123 146 dbtorms;
#X obj 127 201 line~;
#X obj 130 258 +~ 1;
#X obj 94 303 /~;
#X msg 125 175 \$1 10;
#X obj 128 227 lop~ 40;
#X connect 0 0 3 0;
#X connect 0 0 7 0;
#X connect 2 0 1 0;
#X connect 3 0 4 0;
#X connect 4 0 8 0;
#X connect 5 0 9 0;
#X connect 6 0 7 1;
#X connect 7 0 2 0;
#X connect 8 0 5 0;
#X connect 9 0 6 0;
#X restore 57 841 pd limit;
#N canvas 1 79 619 500 limit 0;
#X obj 88 47 inlet~;
#X obj 89 374 outlet~;
#X obj 94 332 hip~ 20;
#X obj 121 119 env~;
#X obj 123 146 dbtorms;
#X obj 127 201 line~;
#X obj 130 258 +~ 1;
#X obj 94 303 /~;
#X msg 125 175 \$1 10;
#X obj 128 227 lop~ 40;
#X connect 0 0 3 0;
#X connect 0 0 7 0;
#X connect 2 0 1 0;
#X connect 3 0 4 0;
#X connect 4 0 8 0;
#X connect 5 0 9 0;
#X connect 6 0 7 1;
#X connect 7 0 2 0;
#X connect 8 0 5 0;
#X connect 9 0 6 0;
#X restore 125 841 pd limit;
#X obj 171 884 *~;
#X obj 209 885 *~;
#X obj 820 162 vsl 20 243 0 1 0 0 empty empty v-L 1 90 0 10 -262144
-258113 -258113 24200 1;
#X obj 844 162 vsl 20 243 0 1 0 0 empty empty v-R 1 90 0 10 -262144
-4160 -4160 24200 1;
#X text 113 409 outputL-outputR-file-preset;
#X obj 475 -58 notein;
#X obj 624 -58 ctlin;
#X floatatom 113 139 5 0 0 0 - - -, f 5;
#X floatatom 247 139 5 0 0 0 - - -, f 5;
#X floatatom 544 -49 5 0 0 0 - - -, f 5;
#X floatatom 202 139 5 0 0 0 - - -, f 5;
#X floatatom 334 139 5 0 0 0 - - -, f 5;
#X floatatom 720 5 5 0 0 0 - - -, f 5;
#X floatatom 158 139 5 0 0 0 - - -, f 5;
#X floatatom 291 139 5 0 0 0 - - -, f 5;
#X msg 387 479 set symbol \$1;
#X obj 840 -51 inlet;
#X obj 767 -70 clip 0 1;
#X obj 838 -22 / 128;
#X text 844 -73 volume;
#X obj 868 162 vsl 20 243 0 1 0 0 empty empty v-M 1 90 0 10 -262144
-86853 -86853 24200 1;
#X obj 204 852 *~;
#X obj 242 853 *~;
#X text 111 102 bang-rate-Crate-Cpos-Clen-Cpan-preset-file-vM;
#X obj 243 -140 loadbang;
#X msg 247 -84 0.5;
#X obj 821 878 s preset-grain1;
#X obj 1276 -315 inlet;
#X text 1278 -336 params;
#X obj 596 -178 abs-line;
#X obj 659 -178 abs-line;
#X obj 721 -178 abs-line;
#X obj 783 -178 abs-line;
#X obj 845 -178 abs-line;
#X obj 907 -178 abs-line;
#X obj 969 -178 abs-line;
#X obj 1031 -178 abs-line;
#X obj 1093 -178 abs-line;
#X obj 1163 -178 abs-line;
#X obj 1225 -178 abs-line;
#X obj 1295 -178 abs-line;
#X obj 116 158 hsl 700 15 10 120000 0 1 empty empty TIME-TRANSITION
5 8 1 10 -262144 -1 -1 8200 1;
#X obj 118 357 hsl 680 15 -36 36 0 1 empty empty PITCH 5 8 0 10 -262144
-258113 -86277 25808 1;
#X floatatom 766 159 7 0 0 0 - - -, f 7;
#X floatatom 779 176 5 0 0 0 - - -, f 5;
#X floatatom 777 269 5 0 0 0 - - -, f 5;
#X floatatom 780 322 5 0 0 0 - - -, f 5;
#X floatatom 761 358 5 0 0 0 - - -, f 5;
#X obj 802 357 bng 15 250 50 0 empty empty empty 17 7 0 10 -258113
-262144 -262144;
#X msg 971 255 0;
#X obj 914 -289 unpack f f f f f f f f f f f f;
#X obj 699 880 print;
#X obj 805 -270 print;
#X obj 804 781 pack f f f f f f f f f f f f;
#X msg 757 845 set \$1 \$2 \$3 \$4 \$5 \$6 \$7 \$8 \$9 \$10 \$11 \$12
;
#X obj 666 -323 r loadpreset-grain1;
#N canvas 0 89 450 250 (subpatch) 0;
#X array array1 626511 float 2;
#X coords 0 1 626511 -1 705 70 2 0 0;
#X restore 112 229 graph;
#X msg 365 704 read -resize \$2 \$1grainsource1 array1;
#X obj 460 138 bng 15 250 50 0 empty empty empty 17 7 0 10 -262144
-260097 -1;
#X obj 382 138 bng 15 250 50 0 empty empty empty 17 7 0 10 -262144
-159808 -1;
#X obj 537 138 bng 15 250 50 0 empty empty empty 17 7 0 10 -262144
-257985 -1;
#X obj 339 -38 r loadfile1;
#X obj 342 555 s filepath1;
#X obj -212 -95 r clock1;
#X obj -30 264 spigot;
#X obj -55 178 sel 0 1;
#X obj -56 139 tgl 15 0 empty empty empty 17 7 0 10 -262144 -1 -1 0
1;
#X obj -62 236 tgl 15 0 empty empty empty 17 7 0 10 -262144 -1 -1 0
1;
#X msg -89 207 0;
#X msg -47 206 1;
#X obj -98 590 metro 30;
#X obj -23 620 * 10000;
#X floatatom 1148 512 0 0 0 0 - - -;
#X text 1265 386 creation argument initializes array name;
#X obj 1148 486 env~ 16384;
#X obj 1224 493 *~;
#X obj 1237 474 line~;
#X text 1299 434 on;
#X text 1294 453 off;
#X text 1285 471 envelope;
#X text 1285 482 generator;
#X text 1238 418 amplitude controls:;
#X obj 1265 505 hip~ 5;
#X msg 1168 320 0 44100;
#X msg 1169 299 44100;
#X msg 1178 267 bang;
#X text 1222 277 "bang" or 0 plays whole sample;
#X text 1224 298 play starting at 44100th sample;
#X text 1235 318 play starting at beginning for 44100 samples;
#X msg 1167 340 44100 1000;
#X text 1245 339 play from 44100 through 45099 (1000 samples);
#X msg 1167 362 stop;
#X text 1206 361 stop playing (outputs zeros when stopped);
#X obj 1250 401 loadbang;
#X obj 1148 386 tabplay~ array1;
#X obj 610 116 bng 15 250 50 0 empty empty play-sample 17 7 0 10 -262144
-1 -1;
#X obj 700 116 bng 15 250 50 0 empty empty stop 17 7 0 10 -262144 -1
-1;
#X msg 1253 454 0 100;
#X msg 1237 433 0.5 100;
#X msg 524 601 symbol 103;
#X obj 177 -44 inlet;
#X obj 174 11 clip 0 1;
#X obj 175 -15 / 128;
#X obj 49 -11 / 200;
#X obj 105 -15 / 128;
#X obj 300 -137 inlet;
#X obj 312 -25 clip 0 1;
#X obj 298 -67 - 10;
#X obj 298 -88 / 60;
#X connect 1 0 189 0;
#X connect 2 0 76 0;
#X connect 3 0 22 0;
#X connect 3 0 131 0;
#X connect 3 0 139 2;
#X connect 4 0 84 0;
#X connect 4 1 85 0;
#X connect 4 2 14 1;
#X connect 5 0 101 0;
#X connect 5 0 12 0;
#X connect 5 0 20 0;
#X connect 9 0 20 0;
#X connect 9 0 12 0;
#X connect 9 0 101 0;
#X connect 10 0 9 0;
#X connect 11 0 58 0;
#X connect 12 0 14 0;
#X connect 12 1 13 1;
#X connect 13 0 143 0;
#X connect 14 0 13 0;
#X connect 15 0 185 0;
#X connect 16 0 17 0;
#X connect 16 0 130 0;
#X connect 16 0 61 1;
#X connect 17 0 18 0;
#X connect 17 1 18 1;
#X connect 18 0 19 0;
#X connect 18 0 47 1;
#X connect 19 0 32 0;
#X connect 19 1 39 1;
#X connect 21 0 156 1;
#X connect 22 0 4 3;
#X connect 23 0 26 1;
#X connect 23 0 27 1;
#X connect 23 0 31 1;
#X connect 24 0 33 0;
#X connect 24 0 132 0;
#X connect 24 0 139 4;
#X connect 25 0 35 0;
#X connect 25 0 139 5;
#X connect 26 0 4 1;
#X connect 27 0 4 2;
#X connect 28 0 4 6;
#X connect 28 0 139 7;
#X connect 29 0 4 7;
#X connect 29 0 139 8;
#X connect 30 0 37 0;
#X connect 30 0 139 3;
#X connect 31 0 4 4;
#X connect 32 0 156 0;
#X connect 33 0 34 0;
#X connect 33 1 34 1;
#X connect 34 0 26 0;
#X connect 35 0 36 0;
#X connect 35 1 36 1;
#X connect 36 0 27 0;
#X connect 37 0 38 0;
#X connect 37 1 38 1;
#X connect 38 0 31 0;
#X connect 39 0 157 0;
#X connect 40 0 49 0;
#X connect 41 0 47 0;
#X connect 42 0 41 0;
#X connect 42 1 41 1;
#X connect 43 0 44 0;
#X connect 44 0 156 0;
#X connect 45 0 40 0;
#X connect 46 0 42 0;
#X connect 46 0 139 1;
#X connect 47 0 48 0;
#X connect 48 0 40 1;
#X connect 49 0 39 0;
#X connect 50 0 32 1;
#X connect 51 0 52 0;
#X connect 52 0 23 0;
#X connect 52 0 22 1;
#X connect 54 0 3 0;
#X connect 55 0 16 0;
#X connect 58 0 59 0;
#X connect 58 1 52 0;
#X connect 58 2 51 0;
#X connect 59 0 16 0;
#X connect 59 0 46 0;
#X connect 59 0 3 0;
#X connect 59 0 30 0;
#X connect 59 0 24 0;
#X connect 59 0 25 0;
#X connect 59 0 28 0;
#X connect 59 0 29 0;
#X connect 59 0 88 0;
#X connect 59 0 89 0;
#X connect 59 0 106 0;
#X connect 59 0 128 0;
#X connect 61 0 139 0;
#X connect 62 0 63 0;
#X connect 63 0 61 0;
#X connect 63 1 59 0;
#X connect 65 0 4 0;
#X connect 65 0 146 0;
#X connect 66 0 4 0;
#X connect 66 0 144 0;
#X connect 66 0 189 0;
#X connect 67 0 66 0;
#X connect 70 0 4 0;
#X connect 70 0 145 0;
#X connect 71 0 70 1;
#X connect 72 0 66 1;
#X connect 72 0 152 0;
#X connect 73 0 65 1;
#X connect 74 0 66 0;
#X connect 76 0 55 0;
#X connect 77 0 190 0;
#X connect 78 0 24 0;
#X connect 80 0 82 0;
#X connect 81 0 29 0;
#X connect 82 0 81 0;
#X connect 84 0 86 0;
#X connect 85 0 87 0;
#X connect 86 0 107 0;
#X connect 87 0 108 0;
#X connect 88 0 86 1;
#X connect 88 0 139 9;
#X connect 89 0 87 1;
#X connect 89 0 139 10;
#X connect 91 0 93 0;
#X connect 91 1 94 0;
#X connect 91 2 95 0;
#X connect 92 0 96 0;
#X connect 92 1 97 0;
#X connect 92 2 98 0;
#X connect 101 0 64 0;
#X connect 101 0 148 0;
#X connect 101 0 185 0;
#X connect 102 0 104 0;
#X connect 103 0 106 0;
#X connect 104 0 103 0;
#X connect 106 0 108 1;
#X connect 106 0 107 1;
#X connect 106 0 139 11;
#X connect 107 0 7 0;
#X connect 108 0 8 0;
#X connect 110 0 111 0;
#X connect 111 0 89 0;
#X connect 111 0 88 0;
#X connect 113 0 136 0;
#X connect 113 0 138 0;
#X connect 115 0 16 0;
#X connect 116 0 46 0;
#X connect 117 0 150 0;
#X connect 118 0 30 0;
#X connect 119 0 24 0;
#X connect 120 0 25 0;
#X connect 121 0 128 0;
#X connect 122 0 28 0;
#X connect 123 0 29 0;
#X connect 124 0 88 0;
#X connect 125 0 89 0;
#X connect 126 0 106 0;
#X connect 127 0 117 1;
#X connect 127 0 118 1;
#X connect 127 0 119 1;
#X connect 127 0 120 1;
#X connect 127 0 121 1;
#X connect 127 0 122 1;
#X connect 127 0 123 1;
#X connect 127 0 124 1;
#X connect 127 0 126 1;
#X connect 127 0 125 1;
#X connect 127 0 129 0;
#X connect 127 0 116 1;
#X connect 127 0 115 1;
#X connect 128 0 4 5;
#X connect 128 0 133 0;
#X connect 128 0 139 6;
#X connect 134 0 135 0;
#X connect 135 0 128 0;
#X connect 136 0 115 0;
#X connect 136 1 116 0;
#X connect 136 2 117 0;
#X connect 136 3 118 0;
#X connect 136 4 119 0;
#X connect 136 5 120 0;
#X connect 136 6 121 0;
#X connect 136 7 122 0;
#X connect 136 8 123 0;
#X connect 136 9 124 0;
#X connect 136 10 125 0;
#X connect 136 11 126 0;
#X connect 139 0 140 0;
#X connect 140 0 60 0;
#X connect 140 0 112 0;
#X connect 140 0 137 0;
#X connect 143 0 11 0;
#X connect 147 0 20 0;
#X connect 147 0 101 0;
#X connect 147 0 12 0;
#X connect 149 0 70 0;
#X connect 150 0 3 0;
#X connect 151 0 155 0;
#X connect 151 1 154 0;
#X connect 152 0 151 0;
#X connect 153 0 150 1;
#X connect 154 0 153 0;
#X connect 155 0 153 0;
#X connect 156 0 45 0;
#X connect 156 0 65 0;
#X connect 157 0 21 0;
#X connect 157 0 50 0;
#X connect 160 0 158 0;
#X connect 161 0 168 0;
#X connect 162 0 161 1;
#X connect 168 0 86 0;
#X connect 168 0 87 0;
#X connect 169 0 180 0;
#X connect 170 0 180 0;
#X connect 171 0 180 0;
#X connect 175 0 180 0;
#X connect 177 0 180 0;
#X connect 179 0 184 0;
#X connect 180 0 160 0;
#X connect 180 0 161 0;
#X connect 181 0 171 0;
#X connect 181 0 184 0;
#X connect 182 0 177 0;
#X connect 182 0 183 0;
#X connect 183 0 162 0;
#X connect 184 0 162 0;
#X connect 185 0 12 0;
#X connect 185 0 20 0;
#X connect 186 0 188 0;
#X connect 187 0 28 0;
#X connect 188 0 187 0;
#X connect 189 0 54 0;
#X connect 190 0 78 0;
#X connect 191 0 194 0;
#X connect 193 0 128 0;
#X connect 194 0 193 0;
#X coords 0 -1 1 1 800 325 2 100 100;
#X restore 107 103 pd granulator1;
#X msg 541 553 0.0343348 0 0.335938 0 0.128755 0 0 0 1 1 1 1;
#X msg 101 542 symbol 103;
#X obj 542 537 r preset-grain1;
#X obj 540 589 s loadpreset-grain1;
#X obj 1163 624 s loadpreset-grain1;
#X obj 896 10 r loadpreset-grain1;
#X obj 101 77 r euc-beat1;
#X msg 1174 528 0.722461 0 0 0.786838 0.530758 0 0 0 1 0.822314 0.809917
0.57438;
#X msg 1174 560 0.722461 0 0 0.786838 0.530758 0 0 0 1 0.822314 0.809917
0.57438;
#X msg 1174 592 0.722461 0 0 0.786838 0.530758 0 0 0 1 0.822314 0.809917
0.57438;
#X obj 942 103 eucgui;
#X obj 943 58 bng 15 250 50 0 empty empty empty 17 7 0 10 -262144 -1
-1;
#X obj 943 76 i;
#X obj 973 79 + 1;
#X obj 943 537 s euc-beat1;
#X obj 1047 537 s euc-beat1;
#X obj 102 522 r filepath1;
#X obj 101 613 s loadfile1;
#X obj 907 132 bng 15 250 50 0 empty empty 0 17 7 0 10 -262144 -258113
-258113;
#X obj 907 163 bng 15 250 50 0 empty empty 1 17 7 0 10 -262144 -258113
-258113;
#X obj 907 194 bng 15 250 50 0 empty empty 2 17 7 0 10 -262144 -258113
-258113;
#X obj 907 226 bng 15 250 50 0 empty empty 3 17 7 0 10 -262144 -258113
-258113;
#X obj 907 257 bng 15 250 50 0 empty empty 4 17 7 0 10 -262144 -258113
-258113;
#X obj 907 288 bng 15 250 50 0 empty empty 5 17 7 0 10 -262144 -258113
-258113;
#X obj 907 319 bng 15 250 50 0 empty empty 6 17 7 0 10 -262144 -258113
-258113;
#X obj 907 350 bng 15 250 50 0 empty empty 7 17 7 0 10 -262144 -258113
-258113;
#X obj 907 381 bng 15 250 50 0 empty empty 8 17 7 0 10 -262144 -258113
-258113;
#X obj 907 412 bng 15 250 50 0 empty empty 9 17 7 0 10 -262144 -258113
-258113;
#X obj 1245 6 r step0;
#X obj 1245 26 r step1;
#X obj 1245 46 r step2;
#X obj 1245 66 r step3;
#X obj 1305 6 r step4;
#X obj 1305 26 r step5;
#X obj 1305 46 r step6;
#X obj 1305 66 r step7;
#X obj 1366 46 r step8;
#X obj 1363 66 r step9;
#X obj 943 37 r clock1;
#X obj 102 479 dac~;
#X msg 1177 498 0.722461 0 0.554688 0 0.111588 0 0 0 1 0.822314 0.809917
0.57438;
#X msg 1159 285 0.0443491 0 0.0143062 0 0 0 0 0 0 0.5 0.5 0.607438
;
#X msg 1163 319 0.0443491 0 0.0143062 0 0.46495 0 0 0 0 0.5 0.5 0.607438
;
#X msg 1164 351 0.104435 0 0.0915594 0 0.46495 0 0 0 0 0.5 0.5 0.607438
;
#X msg 1164 383 1 0 0.0915594 0 1 0 0 0 0 0.5 0.5 0.607438;
#X msg 1171 443 1 0 0.921316 0 1 0 0 0 0 0.5 0.5 0.607438;
#X msg 1172 424 1 0 0.921316 0 1 0 0 0 0 0.5 0.5 0.607438;
#X obj 638 -11 s xface2;
#X obj 698 -11 s yface2;
#X obj 758 -11 s sizeface2;
#X obj 638 29 s xface3;
#X obj 698 29 s yface3;
#X obj 758 29 s sizeface3;
#X obj 522 59 r sizeface1;
#X obj 408 59 r xface1;
#X obj 465 59 r yface1;
#X connect 1 0 41 0;
#X connect 1 1 41 1;
#X connect 2 0 5 0;
#X connect 3 0 19 0;
#X connect 4 0 2 0;
#X connect 7 0 1 10;
#X connect 8 0 1 0;
#X connect 9 0 6 0;
#X connect 10 0 6 0;
#X connect 11 0 6 0;
#X connect 12 0 16 0;
#X connect 12 1 17 0;
#X connect 13 0 14 0;
#X connect 14 0 15 0;
#X connect 14 0 12 0;
#X connect 15 0 14 1;
#X connect 18 0 3 0;
#X connect 20 0 43 0;
#X connect 21 0 44 0;
#X connect 22 0 45 0;
#X connect 23 0 46 0;
#X connect 24 0 48 0;
#X connect 25 0 47 0;
#X connect 26 0 42 0;
#X connect 27 0 9 0;
#X connect 30 0 20 0;
#X connect 31 0 21 0;
#X connect 32 0 22 0;
#X connect 33 0 23 0;
#X connect 34 0 24 0;
#X connect 35 0 25 0;
#X connect 36 0 26 0;
#X connect 37 0 27 0;
#X connect 38 0 28 0;
#X connect 39 0 29 0;
#X connect 40 0 13 0;
#X connect 42 0 6 0;
#X connect 43 0 6 0;
#X connect 44 0 6 0;
#X connect 45 0 6 0;
#X connect 46 0 6 0;
#X connect 47 0 6 0;
#X connect 48 0 6 0;
#X connect 55 0 1 4;
#X connect 56 0 1 3;
#X connect 57 0 1 7;
#X coords 0 -1 1 1 1030 330 1 100 100;
