#N canvas 456 153 1147 908 10;
#X floatatom 478 512 0 0 0 0 - - -;
#X text 595 386 creation argument initializes array name;
#X obj 478 486 env~ 16384;
#X obj 554 493 *~;
#X obj 567 474 line~;
#X text 629 434 on;
#X text 624 453 off;
#X text 615 471 envelope;
#X text 615 482 generator;
#X text 568 418 amplitude controls:;
#X obj 595 505 hip~ 5;
#X msg 498 320 0 44100;
#X msg 316 443 44100;
#X msg 508 267 bang;
#X text 552 277 "bang" or 0 plays whole sample;
#X text 554 298 play starting at 44100th sample;
#X text 565 318 play starting at beginning for 44100 samples;
#X msg 497 340 44100 1000;
#X text 575 339 play from 44100 through 45099 (1000 samples);
#X msg 497 362 stop;
#X text 536 361 stop playing (outputs zeros when stopped);
#X obj 580 401 loadbang;
#X obj 478 386 tabplay~ array1;
#X obj 336 353 bng 15 250 50 0 empty empty play-sample 17 7 0 10 -262144
-1 -1;
#X obj 426 353 bng 15 250 50 0 empty empty stop 17 7 0 10 -262144 -1
-1;
#X msg 583 454 0 100;
#X msg 567 433 0.5 100;
#X connect 2 0 0 0;
#X connect 3 0 10 0;
#X connect 4 0 3 1;
#X connect 11 0 22 0;
#X connect 12 0 22 0;
#X connect 13 0 22 0;
#X connect 17 0 22 0;
#X connect 19 0 22 0;
#X connect 21 0 26 0;
#X connect 22 0 2 0;
#X connect 22 0 3 0;
#X connect 23 0 13 0;
#X connect 23 0 26 0;
#X connect 24 0 19 0;
#X connect 24 0 25 0;
#X connect 25 0 4 0;
#X connect 26 0 4 0;
