#N canvas 190 265 706 507 10;
#X msg 285 194 0.84748 7215.52;
#X obj 212 390 line 1000 100;
#X obj 261 95 pack f f;
#X msg 263 118 set \$1 \$2;
#X msg 335 78 bang;
#X obj 239 48 inlet;
#X obj 173 449 outlet;
#X msg 211 107 bang;
#X obj 335 51 inlet;
#X connect 0 0 1 0;
#X connect 1 0 6 0;
#X connect 2 0 3 0;
#X connect 3 0 0 0;
#X connect 4 0 2 0;
#X connect 5 0 2 0;
#X connect 5 0 7 0;
#X connect 7 0 0 0;
#X connect 8 0 4 0;
#X connect 8 0 2 1;
#X coords 0 507 1 506 100 60 0;
