#N canvas 0 87 1920 993 10;
#N canvas 0 85 1425 819 clock5 0;
#X obj 103 129 nbx 5 14 0 1000 0 1 empty empty empty 0 -8 0 10 -262144
-1 -1 73 256;
#X obj 103 162 nbx 3 14 -16 16 0 1 empty empty empty 0 -8 0 10 -262144
-1 -1 5 256;
#X obj 104 144 bng 15 250 50 0 empty empty S 5 8 0 10 -262144 -1 -1
;
#X obj 228 470 * 10;
#X obj 228 494 + 1;
#X obj 141 454 spigot;
#X obj 142 144 tgl 15 1 empty empty empty 17 7 0 10 -262144 -1 -1 0
1;
#X obj 142 162 tgl 15 1 empty empty empty 17 7 0 10 -262144 -1 -1 1
1;
#X obj 208 410 t f f;
#X obj 213 433 *;
#X obj 288 130 pow -1;
#X obj 289 153 * 60000;
#X obj 138 423 metro 500;
#X obj 304 553 f;
#X obj 305 483 spigot;
#X obj 309 448 metro 500;
#X obj 352 373 /;
#X obj 335 342 t b f;
#X obj 105 243 hsl 50 15 0 1 0 1 empty empty tl 0 7 0 10 -262144 -1
-1 4900 1;
#X obj 103 180 nbx 3 14 -16 16 0 1 empty empty empty 0 -8 0 10 -262144
-1 -1 3 256;
#X obj 142 180 tgl 15 1 empty empty empty 17 7 0 10 -262144 -1 -1 0
1;
#X obj 430 486 spigot;
#X obj 423 452 metro 500;
#X obj 508 383 /;
#X obj 517 350 t b f;
#X obj 103 198 nbx 3 14 -16 16 0 1 empty empty empty 0 -8 0 10 -262144
-1 -1 1 256;
#X obj 142 198 tgl 15 1 empty empty empty 17 7 0 10 -262144 -1 -1 0
1;
#X obj 582 489 spigot;
#X obj 579 456 metro 500;
#X obj 660 386 /;
#X obj 669 353 t b f;
#X obj 103 216 nbx 3 14 -16 16 0 1 empty empty empty 0 -8 0 10 -262144
-1 -1 1 256;
#X obj 142 216 tgl 15 1 empty empty empty 17 7 0 10 -262144 -1 -1 0
1;
#X obj 692 489 spigot;
#X obj 681 449 metro 500;
#X obj 799 381 /;
#X obj 808 348 t b f;
#X text -68 -4 trigger/peak;
#X obj 17 120 + 0.0001;
#X obj 48 61 t f f;
#X obj 49 91 *;
#X msg -18 152 set \$1 10 \$1 10;
#X obj 105 233 hsl 50 8 0 1 0 1 empty empty t 0 4 0 10 -262144 -1 -66577
3900 1;
#X obj 62 38 * 0.99;
#X text 101 113 bpm;
#X text 119 147 d/m;
#N canvas 0 81 508 492 plusminus2multdiv 0;
#X obj 94 14 inlet;
#X obj 153 330 outlet;
#X obj 177 166 abs;
#X obj 75 193 > 0;
#X obj 178 191 t b f;
#X msg 178 220 1;
#X obj 193 251 /;
#X obj 106 135 t f f;
#X obj 173 281 f;
#X obj 75 221 select 0 1;
#X obj 141 281 f;
#X obj 121 66 == 0;
#X obj 95 43 t f f;
#X obj 106 92 +;
#X connect 0 0 12 0;
#X connect 2 0 4 0;
#X connect 3 0 9 0;
#X connect 4 0 5 0;
#X connect 4 1 6 1;
#X connect 5 0 6 0;
#X connect 6 0 8 1;
#X connect 7 0 3 0;
#X connect 7 1 2 0;
#X connect 7 1 10 1;
#X connect 8 0 1 0;
#X connect 9 0 8 0;
#X connect 9 1 10 0;
#X connect 10 0 1 0;
#X connect 11 0 13 1;
#X connect 12 0 13 0;
#X connect 12 1 11 0;
#X connect 13 0 7 0;
#X restore 333 313 pd plusminus2multdiv;
#N canvas 0 81 508 492 plusminus2multdiv 0;
#X obj 94 14 inlet;
#X obj 153 330 outlet;
#X obj 177 166 abs;
#X obj 75 193 > 0;
#X obj 178 191 t b f;
#X msg 178 220 1;
#X obj 193 251 /;
#X obj 106 135 t f f;
#X obj 173 281 f;
#X obj 75 221 select 0 1;
#X obj 141 281 f;
#X obj 121 66 == 0;
#X obj 95 43 t f f;
#X obj 106 92 +;
#X connect 0 0 12 0;
#X connect 2 0 4 0;
#X connect 3 0 9 0;
#X connect 4 0 5 0;
#X connect 4 1 6 1;
#X connect 5 0 6 0;
#X connect 6 0 8 1;
#X connect 7 0 3 0;
#X connect 7 1 2 0;
#X connect 7 1 10 1;
#X connect 8 0 1 0;
#X connect 9 0 8 0;
#X connect 9 1 10 0;
#X connect 10 0 1 0;
#X connect 11 0 13 1;
#X connect 12 0 13 0;
#X connect 12 1 11 0;
#X connect 13 0 7 0;
#X restore 510 315 pd plusminus2multdiv;
#N canvas 1 77 508 492 plusminus2multdiv 0;
#X obj 94 14 inlet;
#X obj 153 330 outlet;
#X obj 177 166 abs;
#X obj 75 193 > 0;
#X obj 178 191 t b f;
#X msg 178 220 1;
#X obj 193 251 /;
#X obj 106 135 t f f;
#X obj 173 281 f;
#X obj 75 221 select 0 1;
#X obj 141 281 f;
#X obj 121 66 == 0;
#X obj 95 43 t f f;
#X obj 106 92 +;
#X connect 0 0 12 0;
#X connect 2 0 4 0;
#X connect 3 0 9 0;
#X connect 4 0 5 0;
#X connect 4 1 6 1;
#X connect 5 0 6 0;
#X connect 6 0 8 1;
#X connect 7 0 3 0;
#X connect 7 1 2 0;
#X connect 7 1 10 1;
#X connect 8 0 1 0;
#X connect 9 0 8 0;
#X connect 9 1 10 0;
#X connect 10 0 1 0;
#X connect 11 0 13 1;
#X connect 12 0 13 0;
#X connect 12 1 11 0;
#X connect 13 0 7 0;
#X restore 666 313 pd plusminus2multdiv;
#N canvas 1 77 508 492 plusminus2multdiv 0;
#X obj 94 14 inlet;
#X obj 153 330 outlet;
#X obj 177 166 abs;
#X obj 75 193 > 0;
#X obj 178 191 t b f;
#X msg 178 220 1;
#X obj 193 251 /;
#X obj 106 135 t f f;
#X obj 173 281 f;
#X obj 75 221 select 0 1;
#X obj 141 281 f;
#X obj 121 66 == 0;
#X obj 95 43 t f f;
#X obj 106 92 +;
#X connect 0 0 12 0;
#X connect 2 0 4 0;
#X connect 3 0 9 0;
#X connect 4 0 5 0;
#X connect 4 1 6 1;
#X connect 5 0 6 0;
#X connect 6 0 8 1;
#X connect 7 0 3 0;
#X connect 7 1 2 0;
#X connect 7 1 10 1;
#X connect 8 0 1 0;
#X connect 9 0 8 0;
#X connect 9 1 10 0;
#X connect 10 0 1 0;
#X connect 11 0 13 1;
#X connect 12 0 13 0;
#X connect 12 1 11 0;
#X connect 13 0 7 0;
#X restore 806 309 pd plusminus2multdiv;
#X obj 602 13 inlet~;
#X obj 602 36 threshold~;
#X text 595 -8 reset;
#N canvas 325 375 1041 699 preset16 0;
#X obj 22 60 inlet;
#X obj -55 808 outlet, f 8;
#X obj 52 167 list prepend;
#X obj 166 133 f;
#X obj 85 28 inlet;
#X obj 153 -2 inlet;
#X text 28 43 data;
#X text 12 809 data out;
#X msg 508 588;
#X msg 489 555;
#X msg 475 527;
#X msg 464 494;
#X msg 450 466;
#X msg 436 437;
#X msg 422 409;
#X msg 412 374;
#X msg 398 346;
#X msg 387 313;
#X msg 373 285;
#X msg 359 256;
#X msg 345 228;
#X msg 329 197;
#X msg 310 163;
#X msg 291 111;
#X msg 261 68 100 1 2 1 2 1 2 1 2 1 0.265306 0.346939;
#X obj 259 36 route 0 1 2 3 4 5 6 7 8 9 10 11 12 13 14 15;
#X text 70 3 store nr;
#X obj 52 125 list;
#X obj 91 67 t b f;
#X obj 153 27 t b f;
#X text 151 -21 recall nr;
#X msg 32 96 symbol set;
#X connect 0 0 27 1;
#X connect 2 0 25 0;
#X connect 3 0 25 0;
#X connect 4 0 28 0;
#X connect 5 0 29 0;
#X connect 8 0 1 0;
#X connect 9 0 1 0;
#X connect 10 0 1 0;
#X connect 11 0 1 0;
#X connect 12 0 1 0;
#X connect 13 0 1 0;
#X connect 14 0 1 0;
#X connect 15 0 1 0;
#X connect 16 0 1 0;
#X connect 17 0 1 0;
#X connect 18 0 1 0;
#X connect 19 0 1 0;
#X connect 20 0 1 0;
#X connect 21 0 1 0;
#X connect 22 0 1 0;
#X connect 23 0 1 0;
#X connect 24 0 1 0;
#X connect 25 0 24 0;
#X connect 25 1 23 0;
#X connect 25 2 22 0;
#X connect 25 3 21 0;
#X connect 25 4 20 0;
#X connect 25 5 19 0;
#X connect 25 6 18 0;
#X connect 25 7 17 0;
#X connect 25 8 16 0;
#X connect 25 9 15 0;
#X connect 25 10 14 0;
#X connect 25 11 13 0;
#X connect 25 12 12 0;
#X connect 25 13 11 0;
#X connect 25 14 10 0;
#X connect 25 15 9 0;
#X connect 25 16 8 0;
#X connect 27 0 2 0;
#X connect 28 0 31 0;
#X connect 28 1 2 1;
#X connect 29 0 3 0;
#X connect 29 1 3 1;
#X connect 31 0 27 0;
#X coords 0 699 1 698 115 18 0;
#X restore 803 578 pd preset16;
#X obj 770 551 f;
#X obj 824 496 r \$0presetstore;
#X obj 939 495 r \$0presetrecall;
#X obj 824 518 t f b;
#X obj 837 427 bng 15 250 50 0 empty empty empty 17 7 0 10 -262144
-1 -1;
#X floatatom 911 439 5 0 0 0 - - -, f 5;
#X obj 847 470 int;
#X obj 886 428 bng 15 250 50 0 empty empty empty 17 7 0 10 -262144
-1 -1;
#X obj 888 470 int;
#X obj 796 551 pack f f f f f f f f f f f f;
#X obj 837 608 unpack f f f f f f f f f f f f;
#X text 206 41 bpm for 1st clock \, subdivisons for the 4 other clock-sources.
negative numbers are multiplications. mute-toggle \, trigger sens \,
trigger-out length.;
#X obj 138 76 loadbang;
#N canvas 0 89 935 704 beatcounter 0;
#X obj 384 105 + 1;
#X obj 386 70 float;
#X obj 384 137 moses 2;
#X obj 384 196 timer;
#X obj 384 164 t b;
#X obj 432 163 t b b;
#X obj 437 284 /;
#X msg 407 262 60000;
#X obj 402 224 t b f;
#X obj 440 309 moses 10;
#X text 284 113 beatcounter;
#X obj 556 399 float;
#X obj 553 442 + 1;
#X obj 472 467 +;
#X obj 513 437 *;
#X obj 489 369 t f b;
#X obj 482 505 /;
#X msg 668 252 0;
#X text 283 343 mean (as seen on idafx blog);
#X obj 691 364 t f f;
#X obj 748 543 moses 0.1;
#X text 707 343 reset;
#X obj 697 406 /;
#X obj 676 471 < 0.75;
#X obj 730 475 > 1.25;
#X obj 696 431 t f f;
#X obj 704 511 ||;
#X obj 473 591 outlet;
#X obj 390 30 inlet;
#X text 479 618 bpm;
#X text 398 10 bang;
#X connect 0 0 1 1;
#X connect 0 0 2 0;
#X connect 1 0 0 0;
#X connect 2 0 4 0;
#X connect 2 1 5 0;
#X connect 3 0 8 0;
#X connect 3 0 19 0;
#X connect 4 0 3 0;
#X connect 5 0 3 0;
#X connect 5 1 3 1;
#X connect 6 0 9 0;
#X connect 7 0 6 0;
#X connect 8 0 7 0;
#X connect 8 1 6 1;
#X connect 9 1 15 0;
#X connect 11 0 12 0;
#X connect 11 0 14 0;
#X connect 12 0 11 1;
#X connect 12 0 16 1;
#X connect 13 0 16 0;
#X connect 14 0 13 1;
#X connect 15 0 13 0;
#X connect 15 1 11 0;
#X connect 16 0 14 1;
#X connect 16 0 27 0;
#X connect 17 0 11 1;
#X connect 17 0 1 1;
#X connect 19 0 22 1;
#X connect 19 1 22 0;
#X connect 20 1 17 0;
#X connect 22 0 25 0;
#X connect 23 0 26 0;
#X connect 24 0 26 1;
#X connect 25 0 23 0;
#X connect 25 1 24 0;
#X connect 26 0 20 0;
#X connect 28 0 1 0;
#X restore 197 93 pd beatcounter;
#X obj 142 113 bng 15 50 20 0 empty empty empty 6 7 0 10 -204786 -1
-1;
#X text 139 11 5 independent clocks \, one master-tempo (bpm) \, tempo-tap
\, sync button;
#X obj -64 21 inlet;
#X obj -64 228 print;
#X obj 426 561 f;
#X obj 578 564 f;
#X obj 688 564 f;
#X obj 145 534 f;
#X obj -64 196 route \$1 \$2 \$3 \$4;
#X msg -20 75 bang;
#X obj 96 579 s masterclock;
#X obj 288 620 s clock1;
#X obj 415 612 s clock2;
#X obj 571 637 s clock3;
#X obj 579 764 s clock4;
#X obj 161 143 bng 15 250 50 0 empty empty empty 17 7 0 10 -262144
-1 -1;
#X obj 161 161 bng 15 250 50 0 empty empty empty 17 7 0 10 -262144
-1 -1;
#X obj 161 179 bng 15 250 50 0 empty empty empty 17 7 0 10 -262144
-1 -1;
#X obj 161 197 bng 15 250 50 0 empty empty empty 17 7 0 10 -262144
-1 -1;
#X obj 161 216 bng 15 250 50 0 empty empty empty 17 7 0 10 -262144
-1 -1;
#X text 164 142 s masterclock;
#X text 164 160 s clock1;
#X text 164 178 s clock2;
#X text 164 196 s clock3;
#X text 164 214 s clock4;
#X connect 0 0 10 0;
#X connect 0 0 54 1;
#X connect 1 0 46 0;
#X connect 1 0 63 2;
#X connect 2 0 12 0;
#X connect 2 0 15 0;
#X connect 2 0 22 0;
#X connect 2 0 28 0;
#X connect 2 0 34 0;
#X connect 3 0 4 0;
#X connect 4 0 13 1;
#X connect 4 0 72 1;
#X connect 4 0 73 1;
#X connect 4 0 74 1;
#X connect 4 0 75 1;
#X connect 5 0 75 0;
#X connect 6 0 5 1;
#X connect 6 0 63 1;
#X connect 7 0 14 1;
#X connect 7 0 63 3;
#X connect 8 0 9 0;
#X connect 8 1 9 1;
#X connect 9 0 3 0;
#X connect 10 0 11 0;
#X connect 11 0 12 1;
#X connect 11 0 16 0;
#X connect 11 0 23 0;
#X connect 11 0 29 0;
#X connect 11 0 35 0;
#X connect 12 0 5 0;
#X connect 13 0 84 0;
#X connect 13 0 79 0;
#X connect 14 0 13 0;
#X connect 15 0 14 0;
#X connect 16 0 15 1;
#X connect 17 0 16 0;
#X connect 17 1 16 1;
#X connect 18 0 8 0;
#X connect 18 0 63 11;
#X connect 19 0 47 0;
#X connect 19 0 63 4;
#X connect 20 0 21 1;
#X connect 20 0 63 5;
#X connect 21 0 72 0;
#X connect 22 0 21 0;
#X connect 23 0 22 1;
#X connect 24 0 23 0;
#X connect 24 1 23 1;
#X connect 25 0 48 0;
#X connect 25 0 63 6;
#X connect 26 0 27 1;
#X connect 26 0 63 7;
#X connect 27 0 73 0;
#X connect 28 0 27 0;
#X connect 29 0 28 1;
#X connect 30 0 29 0;
#X connect 30 1 29 1;
#X connect 31 0 49 0;
#X connect 31 0 63 8;
#X connect 32 0 33 1;
#X connect 32 0 63 9;
#X connect 33 0 74 0;
#X connect 34 0 33 0;
#X connect 35 0 34 1;
#X connect 36 0 35 0;
#X connect 36 1 35 1;
#X connect 38 0 41 0;
#X connect 39 0 40 0;
#X connect 39 1 40 1;
#X connect 40 0 38 0;
#X connect 41 0 51 0;
#X connect 41 0 76 0;
#X connect 42 0 43 0;
#X connect 42 0 63 10;
#X connect 43 0 39 0;
#X connect 46 0 17 0;
#X connect 47 0 24 0;
#X connect 48 0 30 0;
#X connect 49 0 36 0;
#X connect 50 0 51 0;
#X connect 51 0 2 0;
#X connect 53 0 64 0;
#X connect 54 0 63 0;
#X connect 55 0 57 0;
#X connect 56 0 53 2;
#X connect 57 0 53 1;
#X connect 57 1 54 0;
#X connect 58 0 60 0;
#X connect 59 0 60 1;
#X connect 59 0 62 1;
#X connect 60 0 57 0;
#X connect 61 0 62 0;
#X connect 62 0 53 2;
#X connect 63 0 53 0;
#X connect 64 0 0 0;
#X connect 64 1 6 0;
#X connect 64 2 1 0;
#X connect 64 3 7 0;
#X connect 64 4 19 0;
#X connect 64 5 20 0;
#X connect 64 6 25 0;
#X connect 64 7 26 0;
#X connect 64 8 31 0;
#X connect 64 9 32 0;
#X connect 64 10 42 0;
#X connect 64 11 18 0;
#X connect 66 0 2 0;
#X connect 67 0 0 0;
#X connect 68 0 67 0;
#X connect 72 0 80 0;
#X connect 72 0 85 0;
#X connect 73 0 81 0;
#X connect 73 0 86 0;
#X connect 74 0 82 0;
#X connect 74 0 87 0;
#X connect 75 0 78 0;
#X connect 75 0 83 0;
#X connect 76 0 12 0;
#X connect 76 0 15 0;
#X connect 76 0 22 0;
#X connect 76 0 28 0;
#X connect 76 0 34 0;
#X connect 76 0 71 0;
#X connect 77 0 12 0;
#X connect 77 0 15 0;
#X connect 77 0 22 0;
#X connect 77 0 28 0;
#X connect 77 0 34 0;
#X coords 0 -1 1 1 160 160 1 100 100;
#X restore 14 -287 pd clock5;
#X obj 19 -126 000-granuleur-1;
#X obj 178 -286 oprocessing;
