#N canvas 601 113 1039 806 10;
#X msg 33 -368 listen \$1;
#X obj 246 -296 list tosymbol;
#X obj 246 -271 list fromsymbol;
#X obj 247 -193 list tosymbol;
#X obj 247 -149 list prepend set;
#X obj 247 -54 list tosymbol;
#X obj 247 -129 list trim;
#X obj 273 -220 list length;
#X obj 247 -106 t b a;
#X obj 246 -247 t a a;
#X obj 33 -321 t a a;
#X obj 33 -290 list split;
#X obj 31 -114 oscparse;
#X obj 32 -5 list prepend;
#X obj 33 -259 route 0;
#X obj 33 -228 route 0;
#X obj 33 -197 route 0;
#X text 109 -234 <(2);
#X text 349 -279 <(1);
#X text 408 -378 v1 supporte un seul float;
#X text 408 -377 v1 supporte un seul float;
#X text 557 -236 enlever les slash;
#X text 411 -283 2) s'assurer de ne plus avoir de zero qui commence
la liste de sorte a en ajouter seulement 3 et un 47 (slash);
#X text 409 -329 1) list tosymbol a la particularite d elaguer tout
ce qui viens apres un espace utile pour composer le radical du message
OSC;
#X obj 32 -161 route 0;
#X obj 247 -171 route symbol;
#X obj 247 -78 oscformat;
#X obj 248 -28 route symbol;
#X obj 33 -345 netreceive -u -b;
#X obj 71 -525 loadbang;
#X obj 78 -459 list append \$1;
#X obj 78 -480 bng 15 250 50 0 empty empty empty 17 7 0 10 -262144
-1 -1;
#X obj 45 -424 route 0;
#X obj 31 -90 list trim;
#X obj 32 27 list trim;
#X obj 86 -137 list prepend 47 104 105 0;
#X obj 32 -66 route hi;
#X text 8 -501 pd-osc/oReceive;
#X obj 37 -37 t a a;
#X obj 247 -5 t a a;
#X obj 33 -398 t f 0;
#X text 409 -392 v2 support adaptatif;
#X text 42 -135 (3)>;
#X text 408 -252 3) voudoo magic ascii string parsing;
#X text 411 -493 inlet 1 : définir le port;
#X text 409 -478 outlet 1 : reception OSC complet (path + data);
#X text 407 -464 outlet 2 : reception du Data (sans le path);
#X text 409 -451 outlet 3 : Reception du Path (sans le Data;
#X text 431 -436 outlet 2 et 3 sont synchronisé de sorte que 3 est
avant 2 ce qui permet de faire des sends dynamique;
#X msg 19 -459 57120, f 6;
#X floatatom 224 126 5 0 0 0 y - -, f 5;
#X floatatom 268 126 5 0 0 0 L - -, f 5;
#X floatatom 313 127 5 0 0 0 H - -, f 5;
#X floatatom 180 126 5 0 0 0 x - -, f 5;
#X obj 149 -43 print;
#X obj 330 21 unpack f f f f f f f f f f f f;
#X obj 20 250 outlet;
#X obj 70 250 outlet;
#X obj 120 250 outlet;
#X obj 170 250 outlet;
#X obj 230 250 outlet;
#X obj 280 250 outlet;
#X obj 330 250 outlet;
#X obj 380 250 outlet;
#X obj 430 250 outlet;
#X obj 480 250 outlet;
#X obj 530 250 outlet;
#X obj 580 250 outlet;
#X text 104 125 face 1;
#X floatatom 224 154 5 0 0 0 y - -, f 5;
#X floatatom 268 154 5 0 0 0 L - -, f 5;
#X floatatom 313 155 5 0 0 0 H - -, f 5;
#X floatatom 180 154 5 0 0 0 x - -, f 5;
#X text 104 153 face 2;
#X floatatom 224 180 5 0 0 0 y - -, f 5;
#X floatatom 268 180 5 0 0 0 L - -, f 5;
#X floatatom 313 181 5 0 0 0 H - -, f 5;
#X floatatom 180 180 5 0 0 0 x - -, f 5;
#X text 104 179 face 3;
#X floatatom 313 103 5 0 0 0 - - -, f 5;
#X text 285 102 port;
#X obj 38 319 s xface1;
#X obj 98 319 s yface1;
#X obj 38 359 s xface2;
#X obj 98 359 s yface2;
#X obj 158 319 s sizeface1;
#X obj 158 359 s sizeface2;
#X obj 38 399 s xface3;
#X obj 98 399 s yface3;
#X obj 158 399 s sizeface3;
#X connect 0 0 28 0;
#X connect 1 0 2 0;
#X connect 2 0 9 0;
#X connect 3 0 25 0;
#X connect 4 0 6 0;
#X connect 5 0 27 0;
#X connect 6 0 8 0;
#X connect 7 0 11 1;
#X connect 8 0 26 0;
#X connect 8 1 26 0;
#X connect 9 0 3 0;
#X connect 9 1 7 0;
#X connect 10 0 11 0;
#X connect 10 1 1 0;
#X connect 11 1 14 0;
#X connect 12 0 33 0;
#X connect 13 0 34 0;
#X connect 14 0 15 0;
#X connect 14 1 35 0;
#X connect 15 0 16 0;
#X connect 15 1 35 0;
#X connect 16 0 24 0;
#X connect 16 1 35 0;
#X connect 24 0 35 0;
#X connect 24 1 35 0;
#X connect 25 0 4 0;
#X connect 26 0 5 0;
#X connect 27 0 39 0;
#X connect 28 0 10 0;
#X connect 29 0 30 0;
#X connect 29 0 49 0;
#X connect 30 0 32 0;
#X connect 31 0 30 0;
#X connect 32 1 40 0;
#X connect 33 0 36 0;
#X connect 35 0 12 0;
#X connect 36 0 38 0;
#X connect 38 0 13 0;
#X connect 38 1 54 0;
#X connect 38 1 55 0;
#X connect 39 0 13 1;
#X connect 40 0 0 0;
#X connect 40 1 0 0;
#X connect 49 0 40 0;
#X connect 49 0 79 0;
#X connect 50 0 57 0;
#X connect 50 0 82 0;
#X connect 51 0 58 0;
#X connect 51 0 85 0;
#X connect 52 0 59 0;
#X connect 53 0 56 0;
#X connect 53 0 81 0;
#X connect 55 0 53 0;
#X connect 55 1 50 0;
#X connect 55 2 51 0;
#X connect 55 3 52 0;
#X connect 55 4 72 0;
#X connect 55 5 69 0;
#X connect 55 6 70 0;
#X connect 55 7 71 0;
#X connect 55 8 77 0;
#X connect 55 9 74 0;
#X connect 55 10 75 0;
#X connect 55 11 76 0;
#X connect 69 0 61 0;
#X connect 69 0 84 0;
#X connect 70 0 62 0;
#X connect 70 0 86 0;
#X connect 71 0 63 0;
#X connect 72 0 60 0;
#X connect 72 0 83 0;
#X connect 74 0 65 0;
#X connect 74 0 88 0;
#X connect 75 0 66 0;
#X connect 75 0 89 0;
#X connect 76 0 67 0;
#X connect 77 0 64 0;
#X connect 77 0 87 0;
#X coords 0 -1 1 1 250 110 1 100 100;
