#N canvas 0 53 1440 847 10;
#X obj 34 27 eucgui;
#X obj 34 -28 tgl 15 0 empty empty empty 17 7 0 10 -262144 -1 -1 1
1;
#X obj 34 462 t b f b;
#X msg 34 479 36;
#X obj 34 496 makenote;
#X obj 34 527 noteout 1;
#X obj 34 4 i;
#X obj 59 4 + 1;
#X obj 34 -13 metro;
#X obj 166 462 t b f b;
#X obj 159 496 makenote;
#X obj 153 527 noteout 1;
#X msg 160 479 37;
#X floatatom 34 513 3 0 0 0 - - -, f 3;
#X floatatom 78 513 2 0 0 0 - - -, f 2;
#X floatatom 159 513 3 0 0 0 - - -, f 3;
#X floatatom 204 513 2 0 0 0 - - -, f 2;
#X msg 65 479 100;
#X msg 190 479 100;
#X connect 0 0 2 0;
#X connect 0 1 9 0;
#X connect 1 0 8 0;
#X connect 2 0 3 0;
#X connect 2 1 4 1;
#X connect 2 2 17 0;
#X connect 3 0 4 0;
#X connect 3 0 13 0;
#X connect 4 0 5 0;
#X connect 4 1 5 1;
#X connect 4 1 14 0;
#X connect 6 0 7 0;
#X connect 6 0 0 0;
#X connect 7 0 6 1;
#X connect 8 0 6 0;
#X connect 9 0 12 0;
#X connect 9 1 10 1;
#X connect 9 2 18 0;
#X connect 10 0 11 0;
#X connect 10 0 15 0;
#X connect 10 1 11 1;
#X connect 10 1 16 0;
#X connect 12 0 10 0;
#X connect 17 0 4 2;
#X connect 18 0 10 2;
